<svg xmlns="http://www.w3.org/2000/svg" xmlns:xlink="http://www.w3.org/1999/xlink" width="300" zoomAndPan="magnify" viewBox="0 0 224.87999 74.999997" height="100" preserveAspectRatio="xMidYMid meet" version="1.0"><defs><g/><clipPath id="b04ae2fd96"><path d="M 0 0.0195312 L 224.761719 0.0195312 L 224.761719 74.980469 L 0 74.980469 Z M 0 0.0195312 " clip-rule="nonzero"/></clipPath><clipPath id="3207f4e7d2"><path d="M 2 28.390625 L 37 28.390625 L 37 46 L 2 46 Z M 2 28.390625 " clip-rule="nonzero"/></clipPath></defs><g clip-path="url(#b04ae2fd96)"><path fill="#ffffff" d="M 0 0.0195312 L 224.878906 0.0195312 L 224.878906 74.980469 L 0 74.980469 Z M 0 0.0195312 " fill-opacity="1" fill-rule="nonzero"/><path fill="#ffffff" d="M 0 0.0195312 L 224.878906 0.0195312 L 224.878906 74.980469 L 0 74.980469 Z M 0 0.0195312 " fill-opacity="1" fill-rule="nonzero"/></g><g clip-path="url(#3207f4e7d2)"><path fill="#5e17eb" d="M 28.011719 28.488281 C 26.75 28.480469 25.546875 28.738281 24.402344 29.261719 C 23.253906 29.785156 22.269531 30.527344 21.453125 31.484375 L 20.179688 32.945312 L 23.015625 36.222656 L 24.6875 34.292969 C 25.105469 33.808594 25.601562 33.433594 26.183594 33.167969 C 26.761719 32.902344 27.375 32.773438 28.011719 32.777344 C 28.292969 32.773438 28.574219 32.796875 28.851562 32.847656 C 29.128906 32.898438 29.398438 32.976562 29.660156 33.082031 C 29.925781 33.1875 30.171875 33.320312 30.410156 33.472656 C 30.644531 33.628906 30.863281 33.804688 31.066406 34.003906 C 31.265625 34.203125 31.445312 34.417969 31.605469 34.652344 C 31.761719 34.886719 31.898438 35.136719 32.003906 35.394531 C 32.113281 35.65625 32.195312 35.925781 32.253906 36.203125 C 32.308594 36.480469 32.335938 36.757812 32.335938 37.042969 C 32.335938 37.324219 32.308594 37.605469 32.253906 37.882812 C 32.195312 38.15625 32.113281 38.425781 32.003906 38.6875 C 31.898438 38.949219 31.761719 39.195312 31.605469 39.429688 C 31.445312 39.664062 31.265625 39.878906 31.066406 40.078125 C 30.863281 40.277344 30.644531 40.453125 30.410156 40.609375 C 30.171875 40.765625 29.925781 40.894531 29.660156 41 C 29.398438 41.105469 29.128906 41.183594 28.851562 41.234375 C 28.574219 41.289062 28.292969 41.3125 28.011719 41.308594 C 27.375 41.3125 26.765625 41.183594 26.1875 40.917969 C 25.609375 40.652344 25.113281 40.28125 24.699219 39.796875 C 18.488281 32.625 21.441406 36.042969 17.496094 31.480469 C 16.675781 30.523438 15.691406 29.78125 14.546875 29.261719 C 13.398438 28.738281 12.195312 28.480469 10.9375 28.488281 C 10.371094 28.484375 9.8125 28.535156 9.257812 28.640625 C 8.707031 28.75 8.167969 28.910156 7.644531 29.121094 C 7.125 29.335938 6.625 29.597656 6.15625 29.910156 C 5.6875 30.21875 5.25 30.574219 4.851562 30.972656 C 4.449219 31.371094 4.09375 31.804688 3.777344 32.269531 C 3.464844 32.738281 3.199219 33.234375 2.980469 33.753906 C 2.765625 34.277344 2.601562 34.8125 2.492188 35.367188 C 2.378906 35.917969 2.324219 36.476562 2.324219 37.042969 C 2.324219 37.605469 2.378906 38.164062 2.492188 38.71875 C 2.601562 39.269531 2.765625 39.808594 2.980469 40.328125 C 3.199219 40.847656 3.464844 41.34375 3.777344 41.8125 C 4.09375 42.28125 4.449219 42.714844 4.851562 43.109375 C 5.25 43.507812 5.6875 43.863281 6.15625 44.175781 C 6.625 44.484375 7.125 44.746094 7.644531 44.960938 C 8.167969 45.175781 8.707031 45.335938 9.257812 45.441406 C 9.8125 45.546875 10.371094 45.597656 10.9375 45.59375 C 12.195312 45.601562 13.402344 45.347656 14.546875 44.820312 C 15.695312 44.296875 16.675781 43.558594 17.496094 42.597656 L 18.765625 41.136719 L 15.929688 37.863281 L 14.257812 39.789062 C 13.84375 40.277344 13.347656 40.652344 12.765625 40.914062 C 12.183594 41.179688 11.574219 41.3125 10.9375 41.308594 C 10.652344 41.3125 10.375 41.289062 10.097656 41.234375 C 9.816406 41.183594 9.546875 41.105469 9.285156 41 C 9.023438 40.894531 8.773438 40.765625 8.539062 40.609375 C 8.300781 40.453125 8.082031 40.277344 7.882812 40.078125 C 7.679688 39.878906 7.5 39.664062 7.34375 39.429688 C 7.183594 39.195312 7.050781 38.949219 6.941406 38.6875 C 6.832031 38.425781 6.75 38.15625 6.695312 37.882812 C 6.640625 37.605469 6.613281 37.324219 6.613281 37.042969 C 6.613281 36.757812 6.640625 36.480469 6.695312 36.203125 C 6.75 35.925781 6.832031 35.65625 6.941406 35.394531 C 7.050781 35.136719 7.183594 34.886719 7.34375 34.652344 C 7.5 34.417969 7.679688 34.203125 7.882812 34.003906 C 8.082031 33.804688 8.300781 33.628906 8.539062 33.472656 C 8.773438 33.320312 9.023438 33.1875 9.285156 33.082031 C 9.546875 32.976562 9.816406 32.898438 10.097656 32.847656 C 10.375 32.796875 10.652344 32.773438 10.9375 32.777344 C 11.574219 32.769531 12.179688 32.902344 12.757812 33.164062 C 13.339844 33.429688 13.835938 33.804688 14.25 34.285156 C 20.457031 41.457031 17.507812 38.039062 21.453125 42.605469 C 21.683594 42.878906 21.929688 43.140625 22.195312 43.386719 C 22.460938 43.628906 22.738281 43.855469 23.03125 44.066406 C 23.324219 44.277344 23.628906 44.464844 23.945312 44.636719 C 24.261719 44.808594 24.585938 44.960938 24.921875 45.089844 C 25.257812 45.21875 25.601562 45.328125 25.949219 45.414062 C 26.296875 45.503906 26.652344 45.566406 27.007812 45.609375 C 27.367188 45.652344 27.726562 45.675781 28.085938 45.671875 C 28.445312 45.667969 28.804688 45.644531 29.160156 45.597656 C 29.515625 45.550781 29.871094 45.480469 30.21875 45.390625 C 30.566406 45.296875 30.90625 45.183594 31.242188 45.050781 C 31.574219 44.917969 31.898438 44.761719 32.214844 44.585938 C 32.527344 44.410156 32.828125 44.21875 33.121094 44.003906 C 33.410156 43.789062 33.6875 43.558594 33.945312 43.3125 C 34.207031 43.066406 34.453125 42.800781 34.679688 42.523438 C 34.910156 42.246094 35.117188 41.953125 35.308594 41.648438 C 35.5 41.34375 35.671875 41.027344 35.824219 40.699219 C 35.976562 40.375 36.105469 40.039062 36.214844 39.695312 C 36.324219 39.355469 36.414062 39.003906 36.480469 38.652344 C 36.546875 38.296875 36.589844 37.941406 36.609375 37.582031 C 36.628906 37.222656 36.628906 36.863281 36.605469 36.503906 C 36.582031 36.144531 36.535156 35.789062 36.464844 35.4375 C 36.394531 35.082031 36.304688 34.734375 36.191406 34.394531 C 36.082031 34.050781 35.945312 33.71875 35.792969 33.394531 C 35.636719 33.066406 35.464844 32.753906 35.269531 32.449219 C 35.074219 32.148438 34.863281 31.855469 34.632812 31.582031 C 34.402344 31.304688 34.15625 31.042969 33.894531 30.796875 C 33.628906 30.550781 33.351562 30.324219 33.058594 30.113281 C 32.769531 29.902344 32.464844 29.710938 32.148438 29.539062 C 31.832031 29.367188 31.507812 29.214844 31.171875 29.082031 C 30.835938 28.949219 30.496094 28.839844 30.144531 28.753906 C 29.796875 28.664062 29.445312 28.597656 29.085938 28.554688 C 28.730469 28.507812 28.371094 28.488281 28.011719 28.488281 Z M 28.011719 28.488281 " fill-opacity="1" fill-rule="nonzero"/></g><g fill="#ffffff" fill-opacity="1"><g transform="translate(42.232233, 43.321514)"><g><path d="M 5.796875 0.21875 C 4.773438 0.21875 3.785156 0.0820312 2.828125 -0.1875 C 1.867188 -0.46875 1.097656 -0.832031 0.515625 -1.28125 L 1.53125 -3.546875 C 2.09375 -3.128906 2.753906 -2.796875 3.515625 -2.546875 C 4.285156 -2.304688 5.050781 -2.1875 5.8125 -2.1875 C 6.664062 -2.1875 7.296875 -2.3125 7.703125 -2.5625 C 8.117188 -2.820312 8.328125 -3.160156 8.328125 -3.578125 C 8.328125 -3.890625 8.203125 -4.144531 7.953125 -4.34375 C 7.710938 -4.550781 7.40625 -4.710938 7.03125 -4.828125 C 6.65625 -4.953125 6.144531 -5.09375 5.5 -5.25 C 4.507812 -5.476562 3.695312 -5.707031 3.0625 -5.9375 C 2.4375 -6.175781 1.898438 -6.554688 1.453125 -7.078125 C 1.003906 -7.597656 0.78125 -8.289062 0.78125 -9.15625 C 0.78125 -9.90625 0.984375 -10.585938 1.390625 -11.203125 C 1.796875 -11.816406 2.410156 -12.300781 3.234375 -12.65625 C 4.054688 -13.007812 5.0625 -13.1875 6.25 -13.1875 C 7.070312 -13.1875 7.878906 -13.085938 8.671875 -12.890625 C 9.460938 -12.691406 10.15625 -12.410156 10.75 -12.046875 L 9.828125 -9.765625 C 8.628906 -10.441406 7.425781 -10.78125 6.21875 -10.78125 C 5.382812 -10.78125 4.765625 -10.644531 4.359375 -10.375 C 3.960938 -10.101562 3.765625 -9.742188 3.765625 -9.296875 C 3.765625 -8.859375 3.992188 -8.53125 4.453125 -8.3125 C 4.921875 -8.09375 5.628906 -7.878906 6.578125 -7.671875 C 7.566406 -7.429688 8.375 -7.191406 9 -6.953125 C 9.632812 -6.722656 10.175781 -6.351562 10.625 -5.84375 C 11.070312 -5.34375 11.296875 -4.660156 11.296875 -3.796875 C 11.296875 -3.054688 11.085938 -2.378906 10.671875 -1.765625 C 10.265625 -1.160156 9.644531 -0.675781 8.8125 -0.3125 C 7.988281 0.0390625 6.984375 0.21875 5.796875 0.21875 Z M 5.796875 0.21875 "/></g></g></g><g fill="#ffffff" fill-opacity="1"><g transform="translate(56.24212, 43.321514)"><g><path d="M 10.078125 -2.78125 L 4.0625 -2.78125 L 2.90625 0 L -0.171875 0 L 5.609375 -12.96875 L 8.578125 -12.96875 L 14.375 0 L 11.234375 0 Z M 9.140625 -5.0625 L 7.078125 -10.03125 L 5.015625 -5.0625 Z M 9.140625 -5.0625 "/></g></g></g><g fill="#ffffff" fill-opacity="1"><g transform="translate(72.623743, 43.321514)"><g><path d="M 1.53125 -12.96875 L 4.546875 -12.96875 L 4.546875 -2.453125 L 11.046875 -2.453125 L 11.046875 0 L 1.53125 0 Z M 1.53125 -12.96875 "/></g></g></g><g fill="#ffffff" fill-opacity="1"><g transform="translate(86.003637, 43.321514)"><g><path d="M 11.578125 -2.40625 L 11.578125 0 L 1.53125 0 L 1.53125 -12.96875 L 11.34375 -12.96875 L 11.34375 -10.5625 L 4.515625 -10.5625 L 4.515625 -7.75 L 10.546875 -7.75 L 10.546875 -5.40625 L 4.515625 -5.40625 L 4.515625 -2.40625 Z M 11.578125 -2.40625 "/></g></g></g><g fill="#ffffff" fill-opacity="1"><g transform="translate(100.624988, 43.321514)"><g><path d="M 5.796875 0.21875 C 4.773438 0.21875 3.785156 0.0820312 2.828125 -0.1875 C 1.867188 -0.46875 1.097656 -0.832031 0.515625 -1.28125 L 1.53125 -3.546875 C 2.09375 -3.128906 2.753906 -2.796875 3.515625 -2.546875 C 4.285156 -2.304688 5.050781 -2.1875 5.8125 -2.1875 C 6.664062 -2.1875 7.296875 -2.3125 7.703125 -2.5625 C 8.117188 -2.820312 8.328125 -3.160156 8.328125 -3.578125 C 8.328125 -3.890625 8.203125 -4.144531 7.953125 -4.34375 C 7.710938 -4.550781 7.40625 -4.710938 7.03125 -4.828125 C 6.65625 -4.953125 6.144531 -5.09375 5.5 -5.25 C 4.507812 -5.476562 3.695312 -5.707031 3.0625 -5.9375 C 2.4375 -6.175781 1.898438 -6.554688 1.453125 -7.078125 C 1.003906 -7.597656 0.78125 -8.289062 0.78125 -9.15625 C 0.78125 -9.90625 0.984375 -10.585938 1.390625 -11.203125 C 1.796875 -11.816406 2.410156 -12.300781 3.234375 -12.65625 C 4.054688 -13.007812 5.0625 -13.1875 6.25 -13.1875 C 7.070312 -13.1875 7.878906 -13.085938 8.671875 -12.890625 C 9.460938 -12.691406 10.15625 -12.410156 10.75 -12.046875 L 9.828125 -9.765625 C 8.628906 -10.441406 7.425781 -10.78125 6.21875 -10.78125 C 5.382812 -10.78125 4.765625 -10.644531 4.359375 -10.375 C 3.960938 -10.101562 3.765625 -9.742188 3.765625 -9.296875 C 3.765625 -8.859375 3.992188 -8.53125 4.453125 -8.3125 C 4.921875 -8.09375 5.628906 -7.878906 6.578125 -7.671875 C 7.566406 -7.429688 8.375 -7.191406 9 -6.953125 C 9.632812 -6.722656 10.175781 -6.351562 10.625 -5.84375 C 11.070312 -5.34375 11.296875 -4.660156 11.296875 -3.796875 C 11.296875 -3.054688 11.085938 -2.378906 10.671875 -1.765625 C 10.265625 -1.160156 9.644531 -0.675781 8.8125 -0.3125 C 7.988281 0.0390625 6.984375 0.21875 5.796875 0.21875 Z M 5.796875 0.21875 "/></g></g></g><g fill="#ffffff" fill-opacity="1"><g transform="translate(114.638902, 43.321514)"><g><path d="M 12.890625 -12.96875 L 7.15625 0 L 5.796875 0 L 0.0625 -12.96875 L 1.53125 -12.96875 L 6.5 -1.703125 L 11.515625 -12.96875 Z M 12.890625 -12.96875 "/></g></g></g><g fill="#ffffff" fill-opacity="1"><g transform="translate(129.760539, 43.321514)"><g><path d="M 7.78125 0.109375 C 6.5 0.109375 5.332031 -0.175781 4.28125 -0.75 C 3.238281 -1.320312 2.425781 -2.109375 1.84375 -3.109375 C 1.257812 -4.109375 0.96875 -5.234375 0.96875 -6.484375 C 0.96875 -7.734375 1.257812 -8.859375 1.84375 -9.859375 C 2.425781 -10.859375 3.238281 -11.644531 4.28125 -12.21875 C 5.332031 -12.789062 6.5 -13.078125 7.78125 -13.078125 C 9.0625 -13.078125 10.21875 -12.789062 11.25 -12.21875 C 12.289062 -11.65625 13.101562 -10.867188 13.6875 -9.859375 C 14.28125 -8.859375 14.578125 -7.734375 14.578125 -6.484375 C 14.578125 -5.234375 14.28125 -4.101562 13.6875 -3.09375 C 13.101562 -2.09375 12.289062 -1.304688 11.25 -0.734375 C 10.21875 -0.171875 9.0625 0.109375 7.78125 0.109375 Z M 7.78125 -1.109375 C 8.8125 -1.109375 9.738281 -1.335938 10.5625 -1.796875 C 11.382812 -2.265625 12.03125 -2.910156 12.5 -3.734375 C 12.976562 -4.554688 13.21875 -5.472656 13.21875 -6.484375 C 13.21875 -7.492188 12.976562 -8.410156 12.5 -9.234375 C 12.03125 -10.054688 11.382812 -10.695312 10.5625 -11.15625 C 9.738281 -11.625 8.8125 -11.859375 7.78125 -11.859375 C 6.757812 -11.859375 5.832031 -11.625 5 -11.15625 C 4.164062 -10.695312 3.507812 -10.054688 3.03125 -9.234375 C 2.550781 -8.410156 2.3125 -7.492188 2.3125 -6.484375 C 2.3125 -5.472656 2.550781 -4.554688 3.03125 -3.734375 C 3.507812 -2.910156 4.164062 -2.265625 5 -1.796875 C 5.832031 -1.335938 6.757812 -1.109375 7.78125 -1.109375 Z M 7.78125 -1.109375 "/></g></g></g><g fill="#ffffff" fill-opacity="1"><g transform="translate(147.494795, 43.321514)"><g><path d="M 2.109375 -12.96875 L 3.484375 -12.96875 L 3.484375 0 L 2.109375 0 Z M 2.109375 -12.96875 "/></g></g></g><g fill="#ffffff" fill-opacity="1"><g transform="translate(155.278883, 43.321514)"><g><path d="M 7.75 0.109375 C 6.457031 0.109375 5.296875 -0.171875 4.265625 -0.734375 C 3.234375 -1.304688 2.425781 -2.09375 1.84375 -3.09375 C 1.257812 -4.101562 0.96875 -5.234375 0.96875 -6.484375 C 0.96875 -7.734375 1.257812 -8.859375 1.84375 -9.859375 C 2.425781 -10.867188 3.238281 -11.65625 4.28125 -12.21875 C 5.320312 -12.789062 6.484375 -13.078125 7.765625 -13.078125 C 8.722656 -13.078125 9.609375 -12.914062 10.421875 -12.59375 C 11.242188 -12.28125 11.941406 -11.8125 12.515625 -11.1875 L 11.640625 -10.328125 C 10.628906 -11.347656 9.347656 -11.859375 7.796875 -11.859375 C 6.773438 -11.859375 5.84375 -11.625 5 -11.15625 C 4.164062 -10.6875 3.507812 -10.039062 3.03125 -9.21875 C 2.550781 -8.40625 2.3125 -7.492188 2.3125 -6.484375 C 2.3125 -5.472656 2.550781 -4.554688 3.03125 -3.734375 C 3.507812 -2.921875 4.164062 -2.28125 5 -1.8125 C 5.84375 -1.34375 6.773438 -1.109375 7.796875 -1.109375 C 9.359375 -1.109375 10.640625 -1.628906 11.640625 -2.671875 L 12.515625 -1.796875 C 11.941406 -1.179688 11.242188 -0.707031 10.421875 -0.375 C 9.597656 -0.0507812 8.707031 0.109375 7.75 0.109375 Z M 7.75 0.109375 "/></g></g></g><g fill="#ffffff" fill-opacity="1"><g transform="translate(170.78964, 43.321514)"><g><path d="M 11.28125 -1.1875 L 11.28125 0 L 2.109375 0 L 2.109375 -12.96875 L 11 -12.96875 L 11 -11.78125 L 3.484375 -11.78125 L 3.484375 -7.171875 L 10.1875 -7.171875 L 10.1875 -6 L 3.484375 -6 L 3.484375 -1.1875 Z M 11.28125 -1.1875 "/></g></g></g><g fill="#ffffff" fill-opacity="1"><g transform="translate(185.373932, 43.321514)"><g><path d="M 5.6875 0.109375 C 4.726562 0.109375 3.804688 -0.0390625 2.921875 -0.34375 C 2.035156 -0.65625 1.351562 -1.066406 0.875 -1.578125 L 1.40625 -2.625 C 1.875 -2.15625 2.5 -1.773438 3.28125 -1.484375 C 4.0625 -1.203125 4.863281 -1.0625 5.6875 -1.0625 C 6.851562 -1.0625 7.722656 -1.269531 8.296875 -1.6875 C 8.878906 -2.113281 9.171875 -2.671875 9.171875 -3.359375 C 9.171875 -3.867188 9.015625 -4.28125 8.703125 -4.59375 C 8.390625 -4.90625 8.003906 -5.144531 7.546875 -5.3125 C 7.085938 -5.476562 6.453125 -5.660156 5.640625 -5.859375 C 4.660156 -6.097656 3.878906 -6.332031 3.296875 -6.5625 C 2.710938 -6.789062 2.210938 -7.140625 1.796875 -7.609375 C 1.390625 -8.085938 1.1875 -8.726562 1.1875 -9.53125 C 1.1875 -10.175781 1.359375 -10.769531 1.703125 -11.3125 C 2.046875 -11.851562 2.578125 -12.28125 3.296875 -12.59375 C 4.015625 -12.914062 4.90625 -13.078125 5.96875 -13.078125 C 6.707031 -13.078125 7.429688 -12.972656 8.140625 -12.765625 C 8.847656 -12.566406 9.460938 -12.289062 9.984375 -11.9375 L 9.53125 -10.84375 C 8.976562 -11.195312 8.394531 -11.460938 7.78125 -11.640625 C 7.164062 -11.828125 6.5625 -11.921875 5.96875 -11.921875 C 4.832031 -11.921875 3.972656 -11.695312 3.390625 -11.25 C 2.816406 -10.8125 2.53125 -10.25 2.53125 -9.5625 C 2.53125 -9.039062 2.6875 -8.625 3 -8.3125 C 3.320312 -8 3.71875 -7.757812 4.1875 -7.59375 C 4.664062 -7.425781 5.304688 -7.242188 6.109375 -7.046875 C 7.066406 -6.804688 7.835938 -6.570312 8.421875 -6.34375 C 9.003906 -6.113281 9.5 -5.765625 9.90625 -5.296875 C 10.320312 -4.835938 10.53125 -4.210938 10.53125 -3.421875 C 10.53125 -2.773438 10.351562 -2.179688 10 -1.640625 C 9.644531 -1.097656 9.101562 -0.671875 8.375 -0.359375 C 7.644531 -0.046875 6.75 0.109375 5.6875 0.109375 Z M 5.6875 0.109375 "/></g></g></g><g fill="#ffffff" fill-opacity="1"><g transform="translate(198.968895, 43.321514)"><g><path d="M 10.078125 -2.78125 L 4.0625 -2.78125 L 2.90625 0 L -0.171875 0 L 5.609375 -12.96875 L 8.578125 -12.96875 L 14.375 0 L 11.234375 0 Z M 9.140625 -5.0625 L 7.078125 -10.03125 L 5.015625 -5.0625 Z M 9.140625 -5.0625 "/></g></g></g><g fill="#ffffff" fill-opacity="1"><g transform="translate(215.350518, 43.321514)"><g><path d="M 1.53125 -12.96875 L 4.546875 -12.96875 L 4.546875 0 L 1.53125 0 Z M 1.53125 -12.96875 "/></g></g></g></svg>